<?xml version="1.0" encoding="utf-8"?>
<!-- Generator: Adobe Illustrator 26.3.1, SVG Export Plug-In . SVG Version: 6.00 Build 0)  -->
<svg version="1.1" id="Warstwa_1" xmlns="http://www.w3.org/2000/svg" xmlns:xlink="http://www.w3.org/1999/xlink" x="0px" y="0px"
	 viewBox="0 0 1224 284" style="enable-background:new 0 0 1224 284;" xml:space="preserve">
<style type="text/css">
	.st0{display:none;stroke:#000000;stroke-miterlimit:10;}
	.st1{fill:none;stroke:#000000;stroke-width:14;stroke-miterlimit:10;}
</style>
<rect y="0.4" class="st0" width="1224" height="283.6"/>
<g>
	<path d="M23.8,21.9l93.9-1.2l12.6,91.3l-27.7,8.1l28.5,0.8l16.3,85l-66.7,5.5l-1.6-52.7l-11.8-0.2L62,209H-0.2l3.5-20.9l41.3-11
		l-39-0.4l12-97.4l38.8-8.1l-37-2L23.8,21.9z M73.8,102.7L69.7,124h9.8L73.8,102.7z"/>
	<path d="M247.1,30.2l24.4,0.6l-25.2-7.3L247.7,1l58.8,1.2v110.4l-61.2,9.2l61.6-1.8l-0.2,65.3l-22.6,7.9l21-2.4l1.4,18.3h-59v-12.2
		l-26.8,7.3l-37.2-6.7l-17.5-26.8l34.2-4.3l-36.8-1.8l-1.2-8.5l-2.4-17.1l4.9-43.3l11.6-24.4l25-11l43.9,3.7L247.1,30.2z
		 M199.5,147.4l16.5,3.1l7.9-14.6l-10.4-13.4l-12.2,5.5L199.5,147.4z"/>
	<path d="M606.7,51l22-1.2l51.2,1.2l42.3,11.6l24.4,51.2l1.2,25.6l-41.1,8.5l41.9,5.5l0.8,15.9l-21.2,41.5l-46,3.1H664l5.7,70.2
		h-71.6l-0.6-32.9l44.1-7.9l-44.3-3.7l-3.2-155l47.6-3.1l-47.4-7.3l-0.2-22L606.7,51z M672.6,116.3l-18.3-0.6v17.7l5.7,17.1
		l15.9,0.6l6.5-14.6l-6.1-16.5L672.6,116.3z"/>
	<path d="M799.3,80.3V37.6l28.1-2.4l-28.5-5.5l-0.2-15.9l59.8-4.3L856,76l26.2-1.8l2.2,31.1l-43.7,9.2l44.5,1.2l1.2,16.5l-27.5,1.2
		l1.2,75.6l-61.6,1.2l0.6-25l29.3-0.6l-29.1-7.3l1-41.5l-26.2,4.3l-3-55.5L799.3,80.3z"/>
	<path d="M922.5,174.9l11.4-5.7l16.3,4.1l10.2,16.3l1.2,14.4l-15.9,10.2l-27.2-2.6l-5.7-18.9L922.5,174.9z"/>
	<path d="M1057.7,17.5l0.2,11.6l-18.7,5.3l18.7,2.4l1,115.1l-42.9,7.7l43.1,1.2l0.4,53.1h-67.5l-0.2-132.4l29.1-5.7l-29.1-6.1V17.5
		H1057.7z"/>
	<path d="M1220.6,19.9l2.2,42.3l-29.5,8.1l30.1-2l0.4,12.2l-37.8-1.6l13.8,109l-42.7,5.3l41.9,3.7l3.9,14.6l-82.6,2.4l-1.4-56.1
		l28.9-4.9L1119,150l-2-67.9l-28.5-0.8l-2.4-35.8l39-1.6l-39.9-6.1l-1.2-17.5L1220.6,19.9z"/>
</g>
<g>
	<path d="M526.8,18.3c9.5,0.3,17.1,3.8,24.5,8c2.8,1.6,5.6,3.4,8.4,5c6.5,3.8,8.7,9.6,8.1,16.9c-0.7,7.6-3.6,14.4-7.1,21
		c-3.2,5.8-6.5,11.6-11.2,16.4c-0.7,0.7-1.4,1.3-2.2,2c-2.3,2-3.3,2-5.6,0.1c-1.2-1-2.2-2.2-3-3.6c-8.4-16.5-19.6-30.5-34.4-41.4
		c-2.1-1.5-2.8-5-1.4-7.7c4.2-8.2,10.2-14.5,19.6-16.3C524.2,18.4,525.9,18.4,526.8,18.3z"/>
	<path d="M399.3,0.4c8.7,0.1,16.1,1.9,21.9,7.9c4.5,4.7,6.7,10.4,7.9,16.7c0.6,3.3-1.2,6-4.4,7.2c-16.6,6-30.8,15.8-43.1,28.6
		c-1.4,1.5-3,2.8-4.9,3.4c-2.5,0.9-3.3,0.5-4.9-1.7c-3-4.3-4.4-9.2-5.8-14.2c-2.3-8.2-3.9-16.6-3.4-25.2c0.2-3,0.8-6,1.9-8.9
		c2-4.7,5.3-8,10.2-9.2c6.2-1.5,12.2-3.4,18.6-4.1C395.5,0.6,397.8,0.5,399.3,0.4z"/>
	<path d="M476.8,202.1"/>
	<path d="M445.1,90.3c-7.5-5.7-20.2-2.8-23.8,5.7c-2.6,6.2-7.5,10-13.5,12.4c-4.8,1.9-9.7,2.8-14.7,3.5c-0.7,0.1-1.3,0.2-1.7,1
		c-3.6,8.2-3,19.4,3.9,26.2c5.5,5.5,12.5,7.2,17.7,7.4c11.2,0.1,18.3-3.7,23.4-10.9c7.5-10.7,10.9-23,12.8-35.7
		C449.7,96,448.2,92.6,445.1,90.3z M426.4,131.3c-7.7,0-13.9-6.3-13.9-14.2c0-7.9,6.2-14,14.3-14c7.7,0,13.7,6.1,13.7,14.1
		C440.5,125,434.1,131.3,426.4,131.3z"/>
	<path d="M512.5,128.9c-3.1-1.2-6-2.8-8.7-4.7c-6.3-4.2-11.7-9.4-12.7-17.4c-1-7.5-7.7-13.5-15.9-13.8c-5.3-0.2-11.4,2.5-12.1,9.3
		c-1.1,10.4-1.7,20.9,0.7,31.2c3.5,15.1,11.6,22.5,25.7,24c5.9,0.6,11.6-0.3,16.6-3.8c6.7-4.6,9-11.5,9.1-19.4c0-0.4,0-0.8,0-1.2
		C515.3,130.9,514.5,129.7,512.5,128.9z M480.1,139.2c-7.8,0-13.8-6.1-13.8-14c0-8.1,6-14.2,14-14.3c7.9-0.1,13.8,6,13.8,14.2
		C494,132.9,487.8,139.2,480.1,139.2z"/>
	<path d="M426.8,106.2c-6.5-0.1-11.2,4.6-11.2,11.1c-0.1,6.3,4.6,11,11,11.1c6.2,0.1,11.2-4.7,11.3-10.9
		C437.8,111.1,433.2,106.3,426.8,106.2z M432.9,116c-2.1-1.2-3.3-3-4-5.4c-0.4-1.4,0.2-1.8,1.5-1.7c2.8,0.2,5.1,2.7,5.2,5.5
		C435.6,116.7,434.8,117.1,432.9,116z"/>
	<path d="M480.1,114c-6.8,0.1-11.3,5.1-11.2,11.1c0,6.3,4.7,11.1,10.9,11.2c6,0.1,11.1-5,11.2-11.1C491,119,486.2,113.8,480.1,114z
		 M486.3,123.9c-2.5-1.2-3.7-3.5-4.3-6c-0.3-1.4,1.2-1.3,2-1.2c2.3,0.2,4.7,3,4.7,5.5C488.9,124.2,488.1,124.7,486.3,123.9z"/>
	<ellipse class="st1" cx="453.7" cy="124.2" rx="99.6" ry="98.3"/>
</g>
<path d="M469.5,183.8c-1.6-1.2-3.4-0.6-4.4,1.7c-0.8,1.8-2,3.3-3.9,4.3c-3.9,2-7.7,0.8-10.8-1.1c-2.1-1.3-0.2-4.4-0.4-6.7
	c-0.1-0.8-0.2-1.8,1-2.1c0.2,0,0.4,0,0.6,0l7.7-1.8c3.7-1.2,5.5-7.6,3.1-10.7c-0.5-0.6-1-0.7-1.7-0.8c-1.6-1.1-3.1-2.2-4.9-2.7
	c0,0,0,0,0,0c0,0,0,0,0,0c-1.1-1.9-3-1-4.5-1.4c0.1,0,0.1,0.1,0.2,0.1c-0.1,0-0.1,0-0.2-0.1c-1.4-0.1-2.9-0.2-4.3-0.3
	c-0.1,0-0.1,0-0.2,0c0.1,0,0.1,0,0.2-0.1c-1.6,0.1-3.3-1.1-4.6,0.7c0,0,0,0,0,0c0,0,0,0,0,0c-3.2,0.4-5.7,2.1-7.6,4.7
	c-1.2,1.7-1.3,3.5-0.1,5.3c1.7,2.4,3.9,4,6.7,5c4.8,1.6,4.8,1.6,4.4,7c-0.1,0.7-0.1,1.3-0.2,2c-0.1,0.8-0.4,1.4-1.2,1.8
	c-6.4,3.4-13.7,0.2-15.8-7c0,0,0,0-0.1,0c0,0,0,0,0,0c-0.6-1.7-2.1-1.4-3.3-1.3c-0.8,0.1-1.4,1-1.1,1.7c1.3,3.4,1.8,7.3,5.1,9.5
	c4.6,3,9.5,2.8,14.7,2c1.9-0.3,4.2-0.4,5.9,0.4c7.2,3.2,15,1.4,19.5-5.2C470.3,187.2,470.8,184.9,469.5,183.8z"/>
</svg>
