<?xml version="1.0" encoding="utf-8"?>
<!-- Generator: Adobe Illustrator 26.2.1, SVG Export Plug-In . SVG Version: 6.00 Build 0)  -->
<svg version="1.1" id="Warstwa_1" xmlns="http://www.w3.org/2000/svg" xmlns:xlink="http://www.w3.org/1999/xlink" x="0px" y="0px"
	 viewBox="0 0 1224 284" style="enable-background:new 0 0 1224 284;" xml:space="preserve">
<style type="text/css">
	.st0{fill:#FEFEFE;}
	.st1{fill:#FDFDFD;}
	.st2{fill:#FCFCFC;}
	.st3{fill:none;stroke:#000000;stroke-width:14;stroke-miterlimit:10;}
	.st4{fill:#FBFBFB;}
	.st5{fill:#B1B1B1;}
	.st6{fill:#131313;}
	.st7{fill:#2D2D2D;}
	.st8{fill:#030303;}
</style>
<g>
	<path d="M23.78,21.91l93.95-1.22L130.34,112l-27.66,8.13l28.47,0.81l16.27,85l-66.7,5.49l-1.63-52.67l-11.79-0.2L62.01,209H-0.22
		l3.46-20.95l41.28-10.98l-39.04-0.41l12-97.41l38.84-8.13L19.3,69.09L23.78,21.91z M73.8,102.65L69.74,124h9.76L73.8,102.65z"/>
	<path d="M247.06,30.25l24.4,0.61l-25.22-7.32l1.42-22.57l58.77,1.22v110.42l-61.21,9.15l61.62-1.83l-0.2,65.28l-22.57,7.93
		l20.95-2.44l1.42,18.3h-58.97v-12.2l-26.84,7.32l-37.21-6.71l-17.49-26.84l34.16-4.27l-36.81-1.83l-1.22-8.54l-2.44-17.08
		l4.88-43.32l11.59-24.4l25.01-10.98l43.93,3.66L247.06,30.25z M199.48,147.39l16.47,3.05l7.93-14.64l-10.37-13.42l-12.2,5.49
		L199.48,147.39z"/>
	<path d="M606.7,51.01l21.96-1.22l51.25,1.22l42.3,11.59l24.4,51.25l1.22,25.62l-41.08,8.54l41.89,5.49l0.81,15.86l-21.15,41.48
		l-45.96,3.05h-18.3l5.69,70.16h-71.58l-0.61-32.94l44.13-7.93l-44.33-3.66l-3.25-154.96l47.59-3.05l-47.38-7.32l-0.2-21.96
		L606.7,51.01z M672.59,116.29l-18.3-0.61v17.69l5.69,17.08l15.86,0.61l6.51-14.64l-6.1-16.47L672.59,116.29z"/>
	<path d="M799.28,80.29v-42.7l28.06-2.44l-28.47-5.49l-0.2-15.86l59.79-4.27l-2.44,66.5l26.23-1.83l2.24,31.11l-43.72,9.15
		l44.53,1.22l1.22,16.47l-27.45,1.22l1.22,75.65l-61.62,1.22l0.61-25.01l29.28-0.61l-29.08-7.32l1.02-41.48l-26.23,4.27l-3.05-55.52
		L799.28,80.29z"/>
	<path d="M922.51,174.85l11.39-5.69l16.27,4.07l10.17,16.27l1.22,14.44L945.7,214.1l-27.25-2.64l-5.69-18.91L922.51,174.85z"/>
	<path d="M1057.74,17.46l0.2,11.59l-18.71,5.29l18.71,2.44l1.02,115.1l-42.91,7.73l43.11,1.22l0.41,53.08h-67.51l-0.2-132.38
		l29.08-5.69l-29.08-6.1V17.46H1057.74z"/>
	<path d="M1220.63,19.9l2.24,42.3l-29.49,8.13l30.1-2.03l0.41,12.2l-37.82-1.63l13.83,109l-42.71,5.29l41.89,3.66l3.86,14.64
		l-82.56,2.44l-1.42-56.13l28.88-4.88l-28.88-2.85l-2.03-67.92l-28.47-0.81l-2.44-35.79l39.04-1.63l-39.86-6.1l-1.22-17.49
		L1220.63,19.9z"/>
</g>
<g>
	<path d="M526.76,18.31c9.48,0.28,17.14,3.76,24.52,8.03c2.82,1.63,5.58,3.36,8.39,5c6.48,3.76,8.73,9.65,8.11,16.9
		c-0.65,7.59-3.57,14.43-7.14,20.98c-3.18,5.84-6.5,11.6-11.15,16.41c-0.68,0.7-1.43,1.35-2.18,1.98c-2.33,1.96-3.28,1.98-5.63,0.11
		c-1.24-0.98-2.25-2.15-2.98-3.6c-8.36-16.47-19.58-30.48-34.39-41.4c-2.08-1.53-2.84-4.98-1.42-7.73
		c4.25-8.23,10.17-14.51,19.62-16.26C524.16,18.43,525.86,18.39,526.76,18.31z"/>
	<path d="M399.28,0.37c8.74,0.12,16.11,1.87,21.91,7.91c4.47,4.65,6.73,10.44,7.88,16.7c0.61,3.34-1.21,6.02-4.39,7.17
		c-16.6,6.04-30.84,15.79-43.14,28.57c-1.43,1.49-2.96,2.76-4.91,3.43c-2.52,0.88-3.34,0.53-4.91-1.72
		c-2.99-4.28-4.44-9.2-5.84-14.15c-2.33-8.23-3.89-16.57-3.37-25.2c0.18-3.05,0.77-6.02,1.94-8.85c1.96-4.74,5.3-8.01,10.24-9.2
		c6.17-1.5,12.25-3.43,18.59-4.14C395.53,0.65,397.8,0.5,399.28,0.37z"/>
	<path d="M412.98,146.46c-5.2-0.18-12.2-1.88-17.69-7.38c-6.84-6.85-7.49-18.02-3.86-26.22c0.36-0.82,0.98-0.89,1.71-0.99
		c5.01-0.73,9.97-1.67,14.72-3.54c6.03-2.38,10.9-6.1,13.49-12.35c3.52-8.48,16.2-11.37,23.75-5.72c3.14,2.35,4.61,5.69,4.04,9.54
		c-1.89,12.77-5.32,25.05-12.78,35.72C431.26,142.81,424.18,146.61,412.98,146.46z"/>
	<path d="M514.99,134.23c-0.11,7.87-2.35,14.74-9.06,19.36c-5.01,3.45-10.69,4.38-16.57,3.78c-14.16-1.46-22.2-8.9-25.72-23.96
		c-2.41-10.31-1.81-20.78-0.7-31.2c0.72-6.73,6.83-9.45,12.14-9.28c8.19,0.27,14.93,6.31,15.92,13.82
		c1.05,7.99,6.44,13.16,12.73,17.41c2.76,1.87,5.69,3.47,8.75,4.72c2.03,0.83,2.82,2.04,2.53,4.16
		C514.94,133.43,514.99,133.84,514.99,134.23z"/>
	<path d="M476.75,202.08"/>
	<path class="st0" d="M426.4,131.34c-7.72,0-13.88-6.29-13.94-14.21c-0.05-7.87,6.2-13.99,14.3-13.99c7.74,0,13.7,6.13,13.7,14.1
		C440.47,124.96,434.11,131.34,426.4,131.34z"/>
	<path class="st0" d="M494.01,125.06c0.03,7.87-6.19,14.18-13.95,14.16c-7.79-0.02-13.82-6.12-13.84-14
		c-0.02-8.1,5.98-14.25,13.97-14.32C488.04,110.83,493.98,116.91,494.01,125.06z"/>
	<path d="M426.79,106.25c6.41,0.06,11.04,4.84,10.98,11.31c-0.07,6.23-5.01,11.02-11.26,10.9c-6.4-0.12-11.04-4.84-10.97-11.15
		C415.6,110.83,420.33,106.18,426.79,106.25z"/>
	<path d="M468.85,125.06c-0.09-6.02,4.45-10.99,11.22-11.11c6.09-0.11,10.94,5.08,10.87,11.27c-0.06,6.02-5.23,11.13-11.19,11.06
		C473.55,136.19,468.82,131.33,468.85,125.06z"/>
	<path class="st1" d="M435.55,114.39c0.02,2.26-0.71,2.7-2.65,1.63c-2.13-1.18-3.33-3.03-3.97-5.36c-0.38-1.38,0.18-1.8,1.45-1.72
		C433.14,109.11,435.52,111.6,435.55,114.39z"/>
	<path class="st2" d="M488.83,122.22c0.03,1.99-0.7,2.51-2.48,1.68c-2.51-1.17-3.73-3.46-4.3-5.98c-0.32-1.41,1.16-1.29,2.04-1.21
		C486.42,116.93,488.79,119.76,488.83,122.22z"/>
	<ellipse class="st3" cx="453.74" cy="124.2" rx="99.64" ry="98.34"/>
</g>
<path class="st4" d="M460.63,166.64c0.65,0.05,1.22,0.14,1.7,0.77c2.39,3.13,0.56,9.48-3.11,10.7c-2.51,0.83-4.96,1.92-7.68,1.76
	c-0.18-0.01-0.38,0-0.56,0.04c-1.16,0.28-1.05,1.31-0.99,2.09c0.17,2.29-1.72,5.43,0.36,6.7c3.15,1.92,6.92,3.04,10.81,1.09
	c1.93-0.96,3.12-2.51,3.88-4.31c0.99-2.34,2.86-2.96,4.41-1.72c1.39,1.12,0.87,3.49-0.17,4.97c-4.56,6.57-12.31,8.4-19.54,5.17
	c-1.72-0.77-4.01-0.68-5.94-0.37c-5.13,0.83-10.12,1.01-14.68-1.95c-3.33-2.16-3.76-6.1-5.08-9.46c-0.29-0.73,0.28-1.62,1.12-1.71
	c1.26-0.14,2.7-0.43,3.32,1.29c-0.23,0.15-0.48,0.26-0.74,0.34c-1.83,0.37-1.21,1.61-0.86,2.67c1.63,4.99,7.46,8.5,12.82,7.73
	c0.74-0.11,1.5-0.22,2.2-0.48c3.27-1.22,6.29-0.71,9.49,0.62c6.68,2.77,11.74,1.09,16.28-4.92c0.37-0.64,0.85-1.25,0.7-2.09
	c-1.1-0.38-1.31,0.53-1.7,1.09c-4.89,6.87-10.77,6.96-16.98,3.67c-1.07-0.57-1.85-1.35-1.89-2.63c-0.07-2.49,0.12-4.97,0.53-7.43
	c0.18-1.07,0.9-1.62,1.91-1.84c1.37-0.3,2.72-0.66,4.12-0.87c6.47-0.99,8.28-4.11,5.91-10.12
	C460.29,167.12,460.41,166.86,460.63,166.64z"/>
<path class="st5" d="M460.63,166.64c-0.02,0.21-0.05,0.42-0.07,0.63c-0.56,0.77-0.99,1.63-1.64,2.33c-0.22,0.2-0.45,0.36-0.71,0.5
	c-3.57,1.45-6.99,1.21-10.26-0.85c-0.9-0.64-1.55-1.44-1.15-2.64c0.42-1.23,1.48-1.63,2.61-1.89c1.31-0.3,2.58,0.32,3.5,0.22
	c-2.63-0.79-5.67-0.68-8.73-0.46c-2.69,0.19-5.12,1.08-7.12,2.95c-1.99,1.86-2.05,3.29-0.37,5.46c1.25,1.62,2.99,2.54,4.76,3.42
	c6.29,1.86,6.28,1.86,5.73,8.71c-0.16,2.02-0.2,4.09-2.41,5.1c-5.54,2.1-10.81,2.3-15.11-2.62c-1.38-1.58-2.92-3.32-1.78-5.81
	c0.21,0.01,0.42,0.02,0.62,0.04c2.15,7.21,9.4,10.37,15.83,6.96c0.77-0.41,1.13-0.94,1.21-1.76c0.06-0.67,0.11-1.34,0.16-2.01
	c0.4-5.32,0.4-5.34-4.39-6.95c-2.75-0.93-4.99-2.52-6.66-4.96c-1.24-1.8-1.16-3.61,0.06-5.3c1.88-2.61,4.36-4.32,7.58-4.74
	c1.47-0.79,3.12-0.32,4.65-0.74c1.44,0.1,2.88,0.21,4.32,0.31c1.45,0.62,3.18,0.27,4.49,1.36
	C457.55,164.49,459.07,165.59,460.63,166.64z"/>
<path class="st4" d="M446.95,162.21c-1.51,0.51-3.04,0.91-4.65,0.74C443.62,161.14,445.38,162.33,446.95,162.21z"/>
<path class="st4" d="M455.75,163.88c-1.57-0.2-3.07-0.64-4.49-1.36C452.8,162.85,454.69,161.96,455.75,163.88z"/>
<path class="st6" d="M427.89,181.68c0.64,5.28,5.59,9.59,10.61,9.09c1.93-0.19,3.83-0.71,5.74-1.09c2.07-1.55,3.83-0.89,5.86,0.39
	c6.37,4.01,13.43,2.33,16.65-4.2c0.27-0.55,0.73-1.11,1.44-1.47c1.22,1.21,0.41,2.41-0.01,3.61c-3.83,6.09-9.47,8.31-15.88,5.61
	c-3.8-1.6-7.33-1.74-11.28-0.77c-6.79,1.67-12.98-2.04-15.31-8.73c-0.32-0.92-0.6-1.96,0.05-2.75
	C426.43,180.54,427.25,180.98,427.89,181.68z"/>
<path class="st7" d="M468.16,188.01c0.07-0.95,0.14-1.89,0.21-2.88c-0.92-0.08-1.26,0.69-1.43,1.14c-1.68,4.43-5.46,5.75-9.41,6.58
	c-2.57,0.54-4.94-1.02-7.12-2.07c-2.09-1.01-3.87-2.09-6.18-1.1c1.59-0.61,2.28-1.77,2.24-3.51c-0.05-2.28,1.04-4.75,0.12-6.78
	c-1.01-2.25-4.11-1.19-5.87-2.62c1.17-0.97,2.73-0.89,3.71-0.31c3.16,1.86,6.33,0.36,9.47,0.37c1.97,0.01,3.77-1.06,5.35-2.27
	c2.5-1.91,2.27-3.85-0.56-5.26c0.42-0.88,0.44-2.13,1.86-2.04c3.74,5.18,1.27,9.91-5.82,11.14c-5.9,1.03-5.7,1.05-6.4,7.17
	c-0.34,3.02,1.02,4.21,3.32,5.01c6.48,2.26,11.7,1.04,14.84-5.12c0.43-0.84,1.12-2.29,2.3-1.31
	C470.5,185.56,469.05,186.82,468.16,188.01z"/>
<path class="st8" d="M458.7,169.3c0.73,0.25,1.44-1.47,2.11-0.15c0.6,1.19,1.74,2.33,0.75,3.93c-1.93,3.09-4.92,4.19-8.21,4.53
	c-1.56,0.16-3.17-0.21-4.56,0.84c-0.49,0.37-0.99,0.58-1.49,0.06c-1.85-1.93-4.29-1.48-6.56-1.74c-1.28-0.76-2.69-1.37-3.82-2.31
	c-3.16-2.64-2.82-6.49,0.71-8.64c3.78-2.3,7.96-2.47,12.17-2.1c2.01,0.18,3.99,0.7,5.97,1.26c-1.75,0.67-3.56,0.03-5.32,0.2
	c-2.88,0.27-3.63,1.41-2.35,3.49c2.74,2.28,7.39,2.56,10.63,0.64L458.7,169.3z"/>
<path class="st4" d="M453.11,169.52c-1.64-0.37-4.3-0.34-4.12-2.31c0.17-1.89,2.74-1.2,4.36-1.18c0.09,0,0.19,0.01,0.28,0.02
	c1.72,0.16,4.37,0.05,4.17,2.08C457.65,169.77,454.9,169.47,453.11,169.52z"/>
<path class="st7" d="M458.72,169.3c-2.47,2.38-8.49,2.02-10.63-0.64C451.54,170.4,455.07,170.76,458.72,169.3z"/>
</svg>
